<mxfile host="65bd71144e">
    <diagram id="hGkCGlIVz2N73it4Fafs" name="第 1 页">
        <mxGraphModel dx="793" dy="516" grid="1" gridSize="10" guides="1" tooltips="1" connect="1" arrows="1" fold="1" page="1" pageScale="1" pageWidth="827" pageHeight="1169" math="0" shadow="0">
            <root>
                <mxCell id="0"/>
                <mxCell id="1" parent="0"/>
                <mxCell id="2" value="&lt;font style=&quot;font-size: 19px;&quot; face=&quot;Times New Roman&quot;&gt;(b)&lt;/font&gt;" style="rounded=0;whiteSpace=wrap;html=1;container=1;verticalAlign=bottom;strokeColor=none;fontFamily=Times New Roman;fontSize=19;fillColor=none;" vertex="1" parent="1">
                    <mxGeometry x="320" y="240" width="160" height="180" as="geometry">
                        <mxRectangle x="177" y="190" width="50" height="40" as="alternateBounds"/>
                    </mxGeometry>
                </mxCell>
                <mxCell id="31" value="" style="group" vertex="1" connectable="0" parent="2">
                    <mxGeometry x="15" y="10" width="130" height="140" as="geometry"/>
                </mxCell>
                <mxCell id="14" value="A" style="ellipse;whiteSpace=wrap;html=1;fontFamily=Times New Roman;fontSize=19;" vertex="1" parent="31">
                    <mxGeometry x="60" width="40" height="40" as="geometry"/>
                </mxCell>
                <mxCell id="16" value="B" style="ellipse;whiteSpace=wrap;html=1;fontFamily=Times New Roman;fontSize=19;" vertex="1" parent="31">
                    <mxGeometry x="30" y="50" width="40" height="40" as="geometry"/>
                </mxCell>
                <mxCell id="19" style="edgeStyle=none;html=1;endArrow=none;endFill=0;" edge="1" parent="31" source="14" target="16">
                    <mxGeometry relative="1" as="geometry"/>
                </mxCell>
                <mxCell id="17" value="D" style="ellipse;whiteSpace=wrap;html=1;fontFamily=Times New Roman;fontSize=19;" vertex="1" parent="31">
                    <mxGeometry x="90" y="50" width="40" height="40" as="geometry"/>
                </mxCell>
                <mxCell id="21" style="edgeStyle=none;html=1;endArrow=none;endFill=0;" edge="1" parent="31" source="14" target="17">
                    <mxGeometry relative="1" as="geometry"/>
                </mxCell>
                <mxCell id="18" value="C" style="ellipse;whiteSpace=wrap;html=1;fontFamily=Times New Roman;fontSize=19;" vertex="1" parent="31">
                    <mxGeometry y="100" width="40" height="40" as="geometry"/>
                </mxCell>
                <mxCell id="20" style="edgeStyle=none;html=1;endArrow=none;endFill=0;" edge="1" parent="31" source="16" target="18">
                    <mxGeometry relative="1" as="geometry"/>
                </mxCell>
                <mxCell id="29" value="&lt;font style=&quot;font-size: 19px;&quot; face=&quot;Times New Roman&quot;&gt;(a)&lt;/font&gt;" style="rounded=0;whiteSpace=wrap;html=1;container=1;verticalAlign=bottom;strokeColor=none;fontFamily=Times New Roman;fontSize=19;fillColor=none;" vertex="1" parent="1">
                    <mxGeometry x="160" y="240" width="160" height="180" as="geometry">
                        <mxRectangle x="177" y="190" width="50" height="40" as="alternateBounds"/>
                    </mxGeometry>
                </mxCell>
                <mxCell id="15" value="" style="group" vertex="1" connectable="0" parent="29">
                    <mxGeometry x="20" y="30" width="120" height="120" as="geometry"/>
                </mxCell>
                <mxCell id="4" value="A" style="ellipse;whiteSpace=wrap;html=1;fontFamily=Times New Roman;fontSize=19;" vertex="1" parent="15">
                    <mxGeometry width="40" height="40" as="geometry"/>
                </mxCell>
                <mxCell id="5" value="D" style="ellipse;whiteSpace=wrap;html=1;fontFamily=Times New Roman;fontSize=19;" vertex="1" parent="15">
                    <mxGeometry y="80" width="40" height="40" as="geometry"/>
                </mxCell>
                <mxCell id="6" style="edgeStyle=none;html=1;endArrow=classic;endFill=1;" edge="1" parent="15" source="4" target="5">
                    <mxGeometry relative="1" as="geometry"/>
                </mxCell>
                <mxCell id="7" style="edgeStyle=none;html=1;exitX=0;exitY=0.598;exitDx=0;exitDy=0;entryX=1.005;entryY=0.603;entryDx=0;entryDy=0;startArrow=none;startFill=0;endArrow=classic;endFill=1;exitPerimeter=0;entryPerimeter=0;" edge="1" parent="15" source="8" target="4">
                    <mxGeometry relative="1" as="geometry"/>
                </mxCell>
                <mxCell id="8" value="B" style="ellipse;whiteSpace=wrap;html=1;fontFamily=Times New Roman;fontSize=19;" vertex="1" parent="15">
                    <mxGeometry x="80" width="40" height="40" as="geometry"/>
                </mxCell>
                <mxCell id="13" style="edgeStyle=none;html=1;" edge="1" parent="15" source="5" target="8">
                    <mxGeometry relative="1" as="geometry"/>
                </mxCell>
                <mxCell id="9" style="edgeStyle=none;html=1;exitX=1.007;exitY=0.396;exitDx=0;exitDy=0;entryX=0;entryY=0.403;entryDx=0;entryDy=0;startArrow=none;startFill=0;endArrow=classic;endFill=1;exitPerimeter=0;entryPerimeter=0;" edge="1" parent="15" source="4" target="8">
                    <mxGeometry relative="1" as="geometry"/>
                </mxCell>
                <mxCell id="10" value="C" style="ellipse;whiteSpace=wrap;html=1;fontFamily=Times New Roman;fontSize=19;" vertex="1" parent="15">
                    <mxGeometry x="80" y="80" width="40" height="40" as="geometry"/>
                </mxCell>
                <mxCell id="11" style="edgeStyle=none;html=1;endArrow=classic;endFill=1;" edge="1" parent="15" source="8" target="10">
                    <mxGeometry relative="1" as="geometry"/>
                </mxCell>
                <mxCell id="12" style="edgeStyle=none;html=1;startArrow=none;startFill=0;endArrow=classic;endFill=1;" edge="1" parent="15" source="5" target="10">
                    <mxGeometry relative="1" as="geometry"/>
                </mxCell>
                <mxCell id="30" value="&lt;font style=&quot;font-size: 19px;&quot; face=&quot;Times New Roman&quot;&gt;(c)&lt;/font&gt;" style="rounded=0;whiteSpace=wrap;html=1;container=1;verticalAlign=bottom;strokeColor=none;fontFamily=Times New Roman;fontSize=19;fillColor=none;" vertex="1" parent="1">
                    <mxGeometry x="480" y="240" width="160" height="180" as="geometry">
                        <mxRectangle x="177" y="190" width="50" height="40" as="alternateBounds"/>
                    </mxGeometry>
                </mxCell>
                <mxCell id="32" value="" style="group" vertex="1" connectable="0" parent="30">
                    <mxGeometry x="30" y="10" width="100" height="140" as="geometry"/>
                </mxCell>
                <mxCell id="22" value="A" style="ellipse;whiteSpace=wrap;html=1;fontFamily=Times New Roman;fontSize=19;" vertex="1" parent="32">
                    <mxGeometry x="60" width="40" height="40" as="geometry"/>
                </mxCell>
                <mxCell id="23" value="D" style="ellipse;whiteSpace=wrap;html=1;fontFamily=Times New Roman;fontSize=19;" vertex="1" parent="32">
                    <mxGeometry x="30" y="50" width="40" height="40" as="geometry"/>
                </mxCell>
                <mxCell id="26" style="edgeStyle=none;html=1;endArrow=none;endFill=0;" edge="1" parent="32" source="22" target="23">
                    <mxGeometry relative="1" as="geometry"/>
                </mxCell>
                <mxCell id="24" value="B" style="ellipse;whiteSpace=wrap;html=1;fontFamily=Times New Roman;fontSize=19;" vertex="1" parent="32">
                    <mxGeometry y="100" width="40" height="40" as="geometry"/>
                </mxCell>
                <mxCell id="27" style="edgeStyle=none;html=1;endArrow=none;endFill=0;" edge="1" parent="32" source="23" target="24">
                    <mxGeometry relative="1" as="geometry"/>
                </mxCell>
                <mxCell id="25" value="C" style="ellipse;whiteSpace=wrap;html=1;fontFamily=Times New Roman;fontSize=19;" vertex="1" parent="32">
                    <mxGeometry x="60" y="100" width="40" height="40" as="geometry"/>
                </mxCell>
                <mxCell id="28" style="edgeStyle=none;html=1;endArrow=none;endFill=0;" edge="1" parent="32" source="23" target="25">
                    <mxGeometry relative="1" as="geometry"/>
                </mxCell>
            </root>
        </mxGraphModel>
    </diagram>
</mxfile>